<svg width="128" height="128" viewBox="0 0 128 128" xmlns="http://www.w3.org/2000/svg">
  <!-- Background circle with gradient -->
  <defs>
    <radialGradient id="bgGradient" cx="0.3" cy="0.3" r="0.8">
      <stop offset="0%" style="stop-color:#4A90E2;stop-opacity:1" />
      <stop offset="50%" style="stop-color:#357ABD;stop-opacity:1" />
      <stop offset="100%" style="stop-color:#2C5282;stop-opacity:1" />
    </radialGradient>
    <linearGradient id="windowGradient" x1="0%" y1="0%" x2="100%" y2="100%">
      <stop offset="0%" style="stop-color:#ffffff;stop-opacity:0.9" />
      <stop offset="100%" style="stop-color:#f0f0f0;stop-opacity:0.8" />
    </linearGradient>
    <filter id="shadow" x="-20%" y="-20%" width="140%" height="140%">
      <feDropShadow dx="2" dy="2" stdDeviation="3" flood-color="#000000" flood-opacity="0.3"/>
    </filter>
  </defs>
  
  <!-- Background -->
  <circle cx="64" cy="64" r="60" fill="url(#bgGradient)" filter="url(#shadow)"/>
  
  <!-- Main window representation with rounded corners -->
  <rect x="24" y="32" width="80" height="64" rx="6" ry="6" fill="url(#windowGradient)" stroke="#2C5282" stroke-width="2"/>
  
  <!-- Title bar -->
  <rect x="24" y="32" width="80" height="16" rx="6" ry="6" fill="#E53E3E"/>
  <rect x="24" y="42" width="80" height="6" fill="#E53E3E"/>
  
  <!-- Window controls (traffic lights style) -->
  <circle cx="34" cy="40" r="3" fill="#FF5F56"/>
  <circle cx="44" cy="40" r="3" fill="#FFBD2E"/>
  <circle cx="54" cy="40" r="3" fill="#27CA3F"/>
  
  <!-- Side bar with tinted color -->
  <rect x="28" y="52" width="16" height="40" fill="#9F7AEA" rx="2" ry="2"/>
  
  <!-- Main content area -->
  <rect x="48" y="52" width="52" height="40" fill="#ffffff" rx="2" ry="2"/>
  
  <!-- Code lines representation -->
  <rect x="52" y="58" width="32" height="2" fill="#718096" rx="1"/>
  <rect x="52" y="64" width="24" height="2" fill="#718096" rx="1"/>
  <rect x="52" y="70" width="40" height="2" fill="#718096" rx="1"/>
  <rect x="52" y="76" width="28" height="2" fill="#718096" rx="1"/>
  <rect x="52" y="82" width="36" height="2" fill="#718096" rx="1"/>
  
  <!-- Color palette dots showing tinting concept -->
  <circle cx="86" cy="58" r="3" fill="#E53E3E"/>
  <circle cx="94" cy="58" r="3" fill="#38A169"/>
  <circle cx="86" cy="68" r="3" fill="#3182CE"/>
  <circle cx="94" cy="68" r="3" fill="#D69E2E"/>
  <circle cx="86" cy="78" r="3" fill="#9F7AEA"/>
  <circle cx="94" cy="78" r="3" fill="#ED8936"/>
  
  <!-- Subtle highlight on main shape -->
  <ellipse cx="45" cy="45" rx="15" ry="8" fill="url(#windowGradient)" opacity="0.3"/>
</svg>
